<svg xmlns="http://www.w3.org/2000/svg" width="28" height="28" fill="none"><path fill="#1C1C1E" d="M17.27 10.42a2.3 2.3 0 0 0 2.109-1.424h2.891c.44 0 .81-.387.81-.852 0-.466-.37-.844-.81-.844h-2.89a2.28 2.28 0 0 0-2.11-1.433c-.957 0-1.775.598-2.109 1.433H5.747a.837.837 0 0 0-.835.844c0 .465.37.852.835.852h9.413a2.3 2.3 0 0 0 2.11 1.424m0-1.195a1.075 1.075 0 0 1-1.081-1.081c0-.616.474-1.09 1.08-1.09.616 0 1.082.474 1.082 1.09a1.07 1.07 0 0 1-1.081 1.08m-11.55 3.56c-.439 0-.808.377-.808.843 0 .457.37.844.809.844h2.988a2.28 2.28 0 0 0 2.118 1.432c.95 0 1.767-.589 2.11-1.432h9.307a.836.836 0 0 0 .835-.844.836.836 0 0 0-.835-.844h-9.307a2.29 2.29 0 0 0-2.11-1.424 2.29 2.29 0 0 0-2.118 1.424zm5.107 1.933c-.606 0-1.09-.484-1.09-1.09 0-.615.484-1.081 1.09-1.081s1.081.466 1.081 1.08c0 .607-.474 1.09-1.08 1.09m6.443 6.67c.957 0 1.775-.597 2.109-1.432h2.891c.44 0 .81-.378.81-.844 0-.474-.37-.843-.81-.843H19.38a2.28 2.28 0 0 0-2.11-1.433c-.949 0-1.775.598-2.109 1.433H5.747a.836.836 0 0 0-.835.843c0 .457.37.844.835.844h9.413a2.28 2.28 0 0 0 2.11 1.433m0-1.195a1.075 1.075 0 0 1-1.081-1.08c0-.616.474-1.082 1.08-1.082.616 0 1.082.466 1.082 1.081a1.07 1.07 0 0 1-1.081 1.081"/></svg>